<?xml version="1.0" standalone="no"?>
<!DOCTYPE svg PUBLIC "-//W3C//DTD SVG 20010904//EN"
 "http://www.w3.org/TR/2001/REC-SVG-20010904/DTD/svg10.dtd">
<svg version="1.0" xmlns="http://www.w3.org/2000/svg"
 width="480.000000pt" height="480.000000pt" viewBox="0 0 480.000000 480.000000"
 preserveAspectRatio="xMidYMid meet">
<metadata>
Created by potrace 1.11, written by Peter Selinger 2001-2013
</metadata>
<g transform="translate(0.000000,480.000000) scale(0.100000,-0.100000)"
fill="#000000" stroke="none">
<path d="M2290 4185 c-228 -63 -437 -121 -465 -129 l-50 -16 -75 -192 -76
-193 -125 3 c-208 6 -373 -31 -550 -125 -176 -93 -389 -278 -410 -357 -10 -38
-72 -299 -359 -1530 -61 -258 -110 -476 -110 -485 0 -9 15 -38 34 -66 18 -27
86 -130 150 -227 65 -98 121 -178 126 -178 5 0 15 -2 22 -5 8 -3 47 20 88 51
216 165 508 327 709 393 172 57 279 75 451 75 167 -1 243 -13 366 -59 132 -50
259 -132 349 -224 21 -23 48 -41 60 -41 12 0 41 20 65 46 63 64 209 161 299
199 309 130 670 106 1057 -70 147 -67 364 -199 499 -305 84 -65 101 -73 125
-60 18 10 203 279 283 413 l35 58 -14 57 c-8 31 -65 278 -128 547 -63 270
-156 666 -206 880 -50 215 -100 430 -112 479 -23 102 -44 130 -178 240 -264
219 -485 301 -797 294 l-142 -3 -212 300 c-116 165 -219 310 -228 322 -9 13
-26 22 -41 22 -14 0 -212 -52 -440 -114z m-712 -630 c2 -2 -30 -90 -72 -195
-42 -105 -76 -202 -76 -215 0 -17 96 -150 297 -410 344 -446 282 -402 503
-360 73 14 136 22 139 19 7 -7 14 -1104 6 -1104 -2 0 -44 29 -92 64 -253 188
-548 300 -852 326 -215 19 -397 -6 -643 -86 -157 -51 -336 -138 -485 -236 -57
-37 -103 -62 -103 -55 0 6 32 147 71 312 38 165 81 347 94 405 13 58 42 182
64 275 22 94 76 328 121 520 l81 350 69 67 c188 183 409 299 625 327 61 8 244
5 253 -4z m2027 -11 c182 -37 372 -143 528 -294 l88 -85 29 -125 c16 -69 48
-201 70 -295 22 -93 58 -249 80 -345 23 -96 56 -240 75 -320 19 -80 59 -253
90 -385 31 -132 65 -276 75 -320 11 -43 18 -80 17 -81 -1 -2 -47 26 -102 62
-438 284 -892 386 -1320 299 -233 -48 -490 -166 -680 -312 l-70 -54 -3 562
c-1 309 0 564 2 567 3 2 121 25 263 51 l258 46 187 434 c104 239 188 443 188
454 0 11 -20 48 -45 84 -25 35 -45 66 -45 68 0 18 210 11 315 -11z m-2085
-1972 c24 -6 -16 -10 -135 -15 -190 -7 -295 -26 -464 -83 -196 -66 -477 -217
-658 -353 -27 -20 -35 -22 -48 -11 -46 38 -42 44 99 138 361 241 697 350 1041
336 72 -2 146 -8 165 -12z m2273 -7 c266 -48 569 -181 810 -357 l67 -50 -17
-29 c-21 -36 -27 -36 -72 -2 -167 128 -469 289 -655 349 -185 60 -265 74 -456
81 -96 3 -170 8 -165 10 78 25 341 24 488 -2z m-2102 -115 c101 -19 243 -60
236 -67 -2 -2 -44 7 -93 19 -78 20 -114 23 -294 23 -189 -1 -214 -3 -325 -29
-124 -29 -265 -78 -395 -138 -89 -41 -314 -176 -422 -253 l-76 -55 -22 30
c-27 37 -40 24 149 151 270 180 528 284 831 332 80 13 316 6 411 -13z m2034
-14 c141 -33 231 -65 380 -136 184 -87 465 -265 465 -294 0 -6 -9 -22 -19 -35
l-19 -24 -38 30 c-68 54 -266 179 -364 231 -198 106 -404 177 -595 207 -174
28 -423 15 -589 -30 -17 -5 -18 -4 -5 4 9 6 51 20 95 32 154 42 211 49 399 45
150 -3 199 -8 290 -30z m-1974 -111 c81 -14 209 -50 144 -40 -235 35 -387 29
-598 -24 -254 -64 -575 -228 -843 -430 l-41 -31 -19 35 c-10 19 -16 36 -14 38
3 2 50 36 105 74 299 212 593 339 895 386 66 11 295 6 371 -8z m1826 -14 c261
-55 543 -187 820 -383 l82 -58 -17 -30 c-9 -16 -20 -30 -24 -30 -4 0 -55 34
-115 76 -230 161 -479 290 -689 355 -181 56 -403 77 -589 56 -100 -11 -74 2
47 24 130 24 347 19 485 -10z"/>
</g>
</svg>
